<?xml version="1.0" standalone="no"?>
<!DOCTYPE svg PUBLIC "-//W3C//DTD SVG 20010904//EN"
 "http://www.w3.org/TR/2001/REC-SVG-20010904/DTD/svg10.dtd">
<svg version="1.0" xmlns="http://www.w3.org/2000/svg"
 width="1120.000000pt" height="1120.000000pt" viewBox="0 0 1120.000000 1120.000000"
 preserveAspectRatio="xMidYMid meet">
<metadata>
Created by potrace 1.11, written by Peter Selinger 2001-2013
</metadata>
<g transform="translate(0.000000,1120.000000) scale(0.100000,-0.100000)"
fill="#000000" stroke="none">
<path d="M1100 10210 l0 -989 23 -12 c12 -7 23 -12 25 -11 1 1 3 2 5 1 1 0 13
-2 27 -5 14 -2 34 -8 45 -13 23 -11 83 -30 112 -35 10 -2 36 -11 56 -20 21 -8
38 -15 40 -14 1 0 29 -7 62 -17 33 -10 62 -19 65 -20 3 0 21 -6 40 -12 19 -6
96 -30 170 -53 427 -132 580 -180 620 -195 19 -7 37 -13 40 -13 13 -1 66 -15
75 -21 6 -3 17 -6 25 -8 8 -1 65 -18 125 -37 103 -33 314 -99 325 -101 5 -1 3
-1 225 -70 83 -26 155 -48 160 -49 6 -2 17 -6 25 -9 23 -8 192 -59 204 -61 6
-1 16 -4 21 -8 8 -5 106 -35 140 -43 6 -1 18 -5 27 -9 9 -4 22 -9 30 -10 7 -1
67 -19 133 -40 66 -20 185 -58 265 -82 80 -25 159 -50 175 -57 17 -6 36 -10
43 -9 8 2 19 -1 25 -6 7 -5 21 -12 32 -14 39 -11 260 -79 275 -85 19 -8 31
-11 50 -15 8 -2 21 -7 28 -11 6 -5 12 -6 12 -3 0 3 12 1 28 -5 27 -11 234 -77
262 -84 8 -2 44 -13 80 -25 36 -12 72 -23 80 -25 8 -2 53 -15 99 -30 46 -15
91 -28 100 -30 9 -2 34 -10 56 -18 22 -8 45 -13 50 -11 6 1 64 19 130 40 66
21 126 39 132 40 7 1 43 12 80 24 38 12 73 23 78 24 6 1 15 4 20 8 6 3 26 9
45 13 19 4 40 10 45 13 6 4 15 7 21 8 12 2 206 61 234 71 8 4 20 7 27 9 14 3
141 43 163 51 21 9 21 9 55 17 34 9 182 54 205 63 8 4 18 7 23 8 4 2 8 3 10 5
1 1 11 3 21 5 10 2 40 10 65 18 142 46 316 100 325 101 6 1 17 5 24 10 7 4 23
9 35 11 12 1 42 9 67 18 56 19 311 100 328 104 6 2 18 4 25 6 16 4 88 27 107
34 8 3 21 7 29 9 16 3 240 73 261 81 8 3 20 7 27 9 7 1 72 21 145 44 73 23
149 46 168 51 19 6 42 13 50 15 8 3 16 5 17 5 2 0 20 6 42 14 22 7 42 11 45 8
3 -4 6 -2 6 4 0 6 15 14 33 17 17 3 75 20 127 37 52 17 102 32 110 34 8 2 67
20 130 40 63 19 160 49 215 66 55 17 107 33 115 37 8 3 20 6 25 7 6 2 78 24
160 50 83 26 177 55 210 65 33 10 105 32 160 50 55 17 108 33 118 35 9 2 22 7
27 10 9 5 16 1985 7 1985 -1 0 -28 -9 -58 -20 -31 -10 -67 -21 -80 -24 -13 -2
-56 -15 -96 -29 -40 -14 -74 -22 -77 -19 -4 3 -6 0 -6 -7 0 -7 -4 -9 -10 -6
-5 3 -16 3 -22 -2 -7 -4 -17 -8 -23 -9 -5 -1 -55 -17 -110 -35 -55 -18 -104
-32 -109 -31 -4 2 -13 -1 -20 -6 -6 -5 -33 -15 -61 -22 -27 -7 -56 -17 -62
-23 -7 -5 -13 -7 -13 -4 0 4 -18 0 -39 -8 -22 -7 -42 -11 -45 -8 -3 4 -6 0 -6
-7 0 -7 -3 -11 -6 -8 -3 4 -45 -7 -92 -23 -48 -16 -89 -29 -92 -29 -5 0 -164
-50 -360 -112 -69 -22 -129 -41 -135 -42 -5 -2 -30 -9 -55 -16 -25 -8 -48 -14
-52 -16 -5 -1 -10 -3 -13 -4 -3 -1 -8 -3 -12 -4 -15 -4 -218 -67 -243 -76 -14
-5 -65 -20 -115 -35 -49 -14 -99 -30 -110 -36 -11 -5 -31 -12 -45 -15 -38 -8
-55 -12 -57 -14 -2 -2 -6 -3 -10 -4 -20 -5 -192 -58 -228 -71 -44 -15 -241
-76 -259 -80 -6 -1 -18 -5 -26 -8 -20 -8 -93 -30 -105 -33 -5 -1 -45 -14 -88
-28 -43 -14 -97 -31 -120 -38 -23 -6 -44 -12 -47 -13 -3 -1 -18 -5 -35 -10
-16 -4 -34 -10 -40 -14 -5 -3 -15 -6 -22 -7 -7 -1 -41 -11 -75 -22 -35 -11
-123 -39 -195 -61 -73 -23 -136 -43 -140 -43 -5 0 -33 -9 -63 -20 -30 -10
-107 -34 -170 -53 -63 -19 -135 -41 -160 -49 -25 -8 -99 -31 -165 -52 -66 -20
-140 -43 -165 -51 -25 -8 -52 -16 -60 -18 -8 -2 -35 -10 -60 -18 -43 -14 -50
-13 -145 19 -55 18 -101 33 -102 33 -2 1 -8 3 -15 5 -7 2 -38 11 -68 19 -30 9
-58 17 -62 17 -4 1 -23 7 -43 16 -19 8 -36 14 -37 13 -4 -3 -49 10 -73 21 -11
4 -60 20 -110 35 -125 37 -315 95 -347 107 -15 6 -28 9 -30 9 -2 -1 -37 10
-78 25 -41 14 -88 28 -105 31 -16 3 -42 11 -57 19 -15 8 -29 14 -30 13 -2 -1
-23 5 -48 12 -25 7 -48 13 -52 15 -5 1 -9 2 -10 4 -2 1 -10 3 -18 5 -19 4
-302 92 -486 151 -77 24 -149 46 -160 49 -10 2 -62 18 -114 35 -52 17 -104 33
-114 35 -10 3 -35 10 -55 17 -20 7 -38 13 -41 13 -3 1 -12 4 -20 7 -40 15
-136 42 -142 40 -5 -1 -8 3 -8 9 0 5 -4 7 -10 4 -5 -3 -16 -3 -22 2 -7 4 -18
8 -24 9 -14 2 -214 64 -239 74 -11 5 -58 20 -105 34 -47 14 -152 46 -235 72
-82 26 -154 49 -160 50 -11 2 -341 103 -365 112 -8 3 -18 6 -22 7 -5 2 -10 4
-13 5 -3 1 -8 3 -12 4 -5 1 -42 13 -83 25 -41 13 -79 24 -85 26 -5 1 -17 4
-25 7 -69 24 -151 50 -166 53 -11 2 -20 4 -21 5 -2 2 -6 3 -10 5 -5 1 -15 4
-23 7 -25 9 -192 60 -204 63 -6 1 -18 5 -26 8 -8 3 -39 13 -67 21 l-53 15 0
-989z"/>
<path d="M1103 5688 c2 -871 6 -1603 9 -1628 3 -25 9 -74 13 -110 3 -36 8 -78
11 -95 2 -16 6 -47 8 -68 2 -21 8 -57 12 -80 4 -23 8 -49 9 -57 1 -8 7 -40 13
-70 17 -80 23 -111 29 -150 3 -19 10 -41 15 -47 6 -7 8 -13 5 -13 -3 0 -1 -15
4 -32 4 -18 15 -60 24 -93 9 -33 17 -67 19 -75 3 -8 9 -28 16 -45 6 -16 11
-32 11 -35 0 -11 12 -56 19 -65 3 -5 12 -30 19 -55 6 -25 18 -61 26 -80 7 -19
30 -78 50 -130 21 -52 42 -106 48 -120 6 -14 11 -27 12 -30 1 -3 15 -35 32
-72 17 -37 34 -76 38 -88 3 -11 11 -20 16 -20 5 0 9 -6 9 -13 0 -7 18 -47 40
-88 22 -41 44 -83 49 -95 5 -11 28 -51 50 -88 23 -36 41 -69 41 -72 0 -19 332
-490 370 -524 3 -3 18 -21 34 -40 124 -152 374 -404 516 -520 30 -24 62 -53
71 -62 9 -10 19 -18 23 -18 3 0 15 -8 25 -17 29 -27 40 -35 132 -102 46 -33
91 -68 100 -76 9 -8 21 -15 27 -15 7 0 12 -5 12 -12 0 -6 3 -9 6 -6 3 4 13 0
22 -9 27 -23 151 -103 162 -103 6 0 10 -4 10 -10 0 -5 9 -10 19 -10 11 0 21
-4 23 -8 4 -10 125 -82 138 -82 5 0 15 -6 22 -13 22 -22 398 -201 398 -190 0
3 9 -2 21 -13 12 -10 24 -18 28 -18 3 1 15 -2 26 -6 11 -4 47 -17 80 -30 33
-12 65 -23 70 -24 6 -1 19 -7 30 -13 11 -6 36 -14 55 -18 19 -4 41 -11 50 -16
14 -8 124 -41 135 -40 2 0 20 -6 40 -15 19 -8 35 -12 35 -10 0 3 18 -1 41 -9
22 -8 43 -14 47 -13 4 1 14 -1 22 -5 27 -10 104 -26 108 -22 2 2 4 1388 4
3081 0 2988 0 3077 -18 3088 -11 5 -24 11 -29 12 -6 1 -62 18 -125 39 -63 20
-122 38 -130 40 -8 1 -58 17 -110 34 -52 17 -101 31 -108 31 -7 0 -20 4 -30
10 -13 7 -87 30 -144 46 -5 1 -9 2 -10 4 -2 1 -10 3 -18 5 -8 2 -51 15 -95 29
-44 14 -83 26 -87 26 -4 0 -27 8 -50 16 -24 9 -50 17 -58 19 -8 2 -27 8 -43
14 -15 6 -38 13 -50 15 -12 2 -80 23 -152 47 -71 23 -136 42 -142 42 -7 0 -13
4 -13 9 0 5 -4 7 -8 4 -5 -3 -33 3 -63 14 -42 15 -130 42 -179 55 -3 1 -12 4
-20 7 -8 3 -46 15 -85 27 -38 12 -97 30 -130 41 -77 24 -238 73 -247 76 -5 1
-9 2 -10 4 -2 1 -10 3 -18 5 -8 2 -51 15 -95 28 -44 14 -120 37 -170 52 -49
15 -99 31 -110 35 -24 10 -96 33 -111 36 -9 1 -192 58 -325 101 -25 8 -52 15
-60 16 -8 2 -18 5 -24 8 -8 5 -41 15 -75 24 -3 0 -27 8 -55 17 -107 35 -288
90 -301 92 -7 1 -17 5 -20 9 -4 4 -14 7 -21 7 -12 0 -13 -245 -10 -1582z"/>
<path d="M10058 7259 c-10 -5 -18 -7 -18 -3 0 3 -6 2 -13 -4 -7 -6 -24 -13
-37 -16 -14 -2 -44 -11 -68 -20 -23 -8 -43 -15 -45 -14 -1 0 -29 -7 -62 -17
-74 -23 -67 -21 -85 -28 -19 -7 -87 -28 -103 -31 -7 -2 -19 -5 -27 -8 -8 -3
-55 -18 -105 -33 -49 -15 -97 -29 -105 -33 -8 -3 -18 -6 -22 -7 -5 -2 -10 -4
-13 -5 -3 -1 -8 -3 -12 -4 -12 -2 -92 -26 -153 -46 -55 -18 -226 -70 -245 -75
-5 -1 -17 -5 -25 -8 -33 -12 -148 -48 -168 -52 -12 -2 -27 -7 -32 -10 -5 -3
-18 -8 -27 -10 -10 -2 -38 -10 -63 -18 -25 -9 -79 -25 -120 -37 -41 -12 -79
-25 -85 -28 -5 -4 -18 -8 -27 -9 -9 -2 -61 -17 -115 -34 -54 -17 -102 -32
-108 -33 -5 -1 -41 -12 -80 -24 -38 -13 -101 -32 -140 -44 -38 -12 -79 -25
-90 -29 -31 -12 -158 -51 -180 -55 -11 -2 -31 -8 -45 -13 -30 -12 -221 -70
-235 -72 -5 0 -18 -5 -28 -11 -10 -5 -26 -11 -35 -13 -9 -2 -111 -32 -227 -68
-115 -36 -235 -73 -265 -82 -30 -10 -62 -20 -70 -23 -8 -3 -19 -6 -25 -7 -5
-2 -48 -15 -95 -30 -47 -15 -91 -28 -97 -28 -8 0 -13 -14 -14 -31 0 -36 0
-6102 1 -6129 0 -13 6 -16 23 -12 13 4 32 8 43 10 10 2 19 4 19 5 0 2 21 7 60
15 53 11 480 147 530 169 17 8 71 30 120 51 50 20 97 41 105 46 8 5 24 13 35
18 194 86 540 283 687 393 10 7 34 24 53 38 68 48 228 173 297 231 155 132
424 401 505 506 12 15 30 37 40 48 10 11 34 40 53 65 19 25 37 47 40 50 3 3
27 34 53 70 26 36 51 70 55 75 22 28 72 104 72 110 0 4 6 13 13 20 28 32 37
45 37 53 0 4 7 17 15 27 26 33 135 222 135 234 0 6 5 11 10 11 6 0 10 9 10 19
0 11 5 23 10 26 11 7 44 76 42 87 -1 5 2 8 7 8 5 0 13 10 16 21 4 12 27 65 52
118 25 53 48 105 53 116 4 11 13 34 20 50 6 17 11 31 10 33 -1 2 6 14 14 28 9
13 14 24 11 24 -3 0 1 13 9 28 8 15 26 66 41 112 14 47 30 94 35 105 10 23 28
83 35 111 2 10 9 35 15 54 6 19 14 46 17 60 7 36 9 43 16 60 4 8 9 27 12 43 5
27 10 49 20 97 4 14 8 36 11 50 39 194 47 240 48 288 0 17 3 32 6 32 4 0 10
49 14 133 0 15 3 27 6 27 11 0 12 149 16 1698 5 1686 7 1608 -38 1581z"/>
</g>
</svg>
