<svg xmlns="http://www.w3.org/2000/svg" viewBox="0 0 382.58 130.29"><defs><style>.cls-1,.cls-2{fill:#1a1a18;}.cls-1{fill-rule:evenodd;}</style></defs><title>mono1</title><g id="Layer_2" data-name="Layer 2"><g id="Layer_1-2" data-name="Layer 1"><path class="cls-1" d="M357.69,42.92c.42,1.67.84,3.35,1.25,5v5.88c0,13.06,1.35,11.77-11.76,11.77V36.17c0-13.09-1.33-11.76,11.76-11.76l11,19.05c.65,1.25,1.31,2.5,2,3.75l.15-.11c-.42-1.7-.85-3.4-1.27-5.1V36.17c0-13.12-1.31-11.76,11.76-11.76V53.82c0,12.6,1,11.77-11.76,11.77l-5.44-9.44-5.58-9.7c-.63-1.2-1.26-2.41-1.9-3.61l-.19.08M100,24.41V51.88a4.41,4.41,0,1,0,8.82,0V36.17c0-12.84-1-11.76,11.77-11.76V50.26a15.58,15.58,0,0,1-.17,2.89,16.19,16.19,0,0,1-32.19-3v-14C88.24,23.27,87.34,24.41,100,24.41Zm54.63,18.51c.42,1.67.83,3.35,1.25,5v5.88c0,13.06,1.35,11.77-11.76,11.77V36.17c0-13.09-1.33-11.76,11.76-11.76q5.51,9.53,11,19.05l2,3.75.15-.11c-.42-1.7-.85-3.4-1.27-5.1V36.17c0-13.12-1.31-11.76,11.76-11.76V53.82c0,12.6,1,11.77-11.76,11.77l-5.44-9.44-5.58-9.7-1.9-3.61ZM291.28,65.59V36.35c0-12.9-1.13-11.94,11.73-11.94h20.63c0,11.38.88,10.29-11.75,10.29h-8.84v5.15H320.7c0,11.25,1.06,10.29-11.69,10.29h-6v5.15h20.59c0,11.1.78,10.3-11.83,10.3ZM214.81,24.41V53.82c0,13.08,1.26,11.77-11.77,11.77V36.17C203,23.39,201.64,24.41,214.81,24.41ZM236.87,34.7c0-11.45-1.51-10.29,11.76-10.29h20.59c0,10.91.82,10.29-10.29,10.29v19c0,12.84,1.32,11.84-11.77,11.84V34.7Z"/><path class="cls-2" d="M55.89,42.29V24.41L33.83,31.26V69.61A28,28,0,0,0,55.89,42.29M0,24.41V42.32A28,28,0,0,0,22.06,69.61V31.26Z"/><polygon class="cls-1" points="55.89 0 27.94 8.68 0 0 0 12.32 27.94 20.99 55.89 12.32 55.89 0"/><path class="cls-2" d="M358.53,126.19c2.3,0,3.44-.86,3.44-2.57s-1.14-2.51-3.44-2.51H354v5.08ZM354,120h4.07a3.83,3.83,0,0,0,2.36-.63,2.42,2.42,0,0,0,0-3.65,3.9,3.9,0,0,0-2.36-.62H354Zm6.5.42a3.7,3.7,0,0,1,2.11,1.11,3.55,3.55,0,0,1-.5,4.82,5.92,5.92,0,0,1-3.61.93h-5.89V114h5.53a5.58,5.58,0,0,1,3.33.87,2.93,2.93,0,0,1,1.2,2.53,3.12,3.12,0,0,1-.57,1.89A3.49,3.49,0,0,1,360.53,120.45Zm-19.47,5.72a5.69,5.69,0,0,0,2.85-.72,5.12,5.12,0,0,0,2-2,5.58,5.58,0,0,0,.72-2.82,5.65,5.65,0,0,0-.72-2.83,5.12,5.12,0,0,0-2-2,5.69,5.69,0,0,0-2.85-.71,5.75,5.75,0,0,0-2.86.71,5.21,5.21,0,0,0-2,2,5.55,5.55,0,0,0-.73,2.83,5.49,5.49,0,0,0,.73,2.82,5.21,5.21,0,0,0,2,2A5.76,5.76,0,0,0,341.06,126.17Zm0,1.25a7.3,7.3,0,0,1-3.58-.88,6.45,6.45,0,0,1-2.51-2.43,7.08,7.08,0,0,1,0-6.91,6.35,6.35,0,0,1,2.51-2.42,7.31,7.31,0,0,1,3.58-.89,7.21,7.21,0,0,1,3.57.88,6.43,6.43,0,0,1,2.49,2.42,7,7,0,0,1,0,6.93,6.46,6.46,0,0,1-2.49,2.43A7.31,7.31,0,0,1,341.06,127.42Zm-15.63-5.55a4.69,4.69,0,0,0,3-.86,3.43,3.43,0,0,0,0-4.92,4.64,4.64,0,0,0-3-.87H321.9v6.65Zm0-7.86a6,6,0,0,1,4,1.21,4.57,4.57,0,0,1,0,6.68,6,6,0,0,1-4,1.21H321.9v4.2h-1.41V114Zm-9.34,12.08v1.22h-9.4V114h9.12v1.21h-7.72V120H315v1.2h-6.88v4.94Zm-23.38-7.64a34.1,34.1,0,0,1-.46,5,4.17,4.17,0,0,1-1.25,2.63h8.19V115.22h-6.36Zm9.86,7.64v4.2H301.3v-3H289.69l0,3h-1.31l0-4.2h.67c.87,0,1.48-.74,1.82-2.08a28.12,28.12,0,0,0,.63-5.69l.15-4.31h9v12.08ZM284.88,114v13.3h-1.39v-6.14h-8.32v6.14h-1.41V114h1.41v5.92h8.32V114ZM269.4,126.09v1.22H260V114h9.12v1.21H261.4V120h6.88v1.2H261.4v4.94Zm-13.12-10.87h-4.67v12.09h-1.39V115.22h-4.68V114h10.74ZM234,122.61l-3.19-7.14-3.19,7.14Zm.52,1.14h-7.41l-1.6,3.56H224L230.1,114h1.38l6.08,13.3h-1.48ZM220.24,114v13.3H218.9V116.67l-5.23,9H213l-5.23-8.9v10.59h-1.35V114h1.16l5.78,9.86,5.72-9.86Zm-18.17,12.08v1.22h-9.41V114h9.13v1.21h-7.72V120H201v1.2h-6.88v4.94ZM189,115.22h-4.67v12.09h-1.39V115.22h-4.68V114H189Zm-17.57,12.2a7.3,7.3,0,0,1-3.56-.87,6.39,6.39,0,0,1-2.49-2.43,7.12,7.12,0,0,1,0-6.93,6.39,6.39,0,0,1,2.5-2.42,7.24,7.24,0,0,1,3.57-.88,7.42,7.42,0,0,1,2.74.5,5.83,5.83,0,0,1,2.13,1.44l-.9.89a5.28,5.28,0,0,0-3.93-1.57,5.8,5.8,0,0,0-2.87.72,5.31,5.31,0,0,0-2,2,5.79,5.79,0,0,0,0,5.63,5.31,5.31,0,0,0,2,2,5.7,5.7,0,0,0,2.87.73,5.22,5.22,0,0,0,3.93-1.6l.9.89a5.83,5.83,0,0,1-2.14,1.46A7.47,7.47,0,0,1,171.38,127.42ZM148.67,114h1.38v11l8.52-11h1.27v13.3h-1.39v-11l-8.51,11h-1.27Zm-9,13.41a7.3,7.3,0,0,1-3.56-.87,6.39,6.39,0,0,1-2.49-2.43,7.12,7.12,0,0,1,0-6.93,6.39,6.39,0,0,1,2.5-2.42,7.21,7.21,0,0,1,3.57-.88,7.42,7.42,0,0,1,2.74.5,5.83,5.83,0,0,1,2.13,1.44l-.9.89a5.3,5.3,0,0,0-3.93-1.57,5.8,5.8,0,0,0-2.87.72,5.24,5.24,0,0,0-2,2,5.79,5.79,0,0,0,0,5.63,5.24,5.24,0,0,0,2,2,5.7,5.7,0,0,0,2.87.73,5.22,5.22,0,0,0,3.93-1.6l.9.89a5.83,5.83,0,0,1-2.14,1.46A7.47,7.47,0,0,1,139.63,127.42Zm-26.77-8.74a3.26,3.26,0,0,0,1,2.52,4,4,0,0,0,2.8.88h3.86v-6.86h-3.72a4.22,4.22,0,0,0-2.88.89A3.2,3.2,0,0,0,112.86,118.68Zm9-4.67v13.3h-1.39v-4h-4c-.18,0-.43,0-.76,0L113,127.31h-1.51l3-4.32a4,4,0,0,1-2.25-1.55,4.62,4.62,0,0,1-.78-2.72,4.38,4.38,0,0,1,1.42-3.48A5.63,5.63,0,0,1,116.7,114Zm-16.2,8.6-3.19-7.14-3.2,7.14Zm.51,1.14H98.77l-1.6,3.56H95.71l6.08-13.3h1.39l6.08,13.3h-1.48ZM91.94,114v13.3H90.55v-6.14H82.23v6.14H80.82V114h1.41v5.92h8.32V114Zm-28,0h1.39v11l8.51-11H75.1v13.3H73.71v-11l-8.51,11H63.92Zm-14,4.44a33.92,33.92,0,0,1-.47,5,4.17,4.17,0,0,1-1.24,2.63h8.19V115.22H50.06Zm9.86,7.64v4.2H58.5v-3H46.89l0,3H45.56l0-4.2h.66c.88,0,1.48-.74,1.83-2.08a27.53,27.53,0,0,0,.62-5.69l.16-4.31h9v12.08Zm-16.58,0v1.22h-9.4V114H43v1.21H35.23V120h6.88v1.2H35.23v4.94Z"/></g></g></svg>