<svg xmlns="http://www.w3.org/2000/svg" viewBox="0 0 382.58 69.61"><defs><style>.cls-1{fill:#fff;}.cls-1,.cls-3{fill-rule:evenodd;}.cls-2,.cls-3{fill:#ed6f00;}</style></defs><title>white2</title><g id="Layer_2" data-name="Layer 2"><g id="Layer_1-2" data-name="Layer 1"><path class="cls-1" d="M357.69,42.92c.42,1.67.84,3.35,1.25,5v5.88c0,13.06,1.35,11.77-11.76,11.77V36.17c0-13.09-1.33-11.76,11.76-11.76l11,19.05c.65,1.25,1.31,2.5,2,3.75l.15-.11c-.42-1.7-.85-3.4-1.27-5.1V36.17c0-13.12-1.31-11.76,11.76-11.76V53.82c0,12.6,1,11.77-11.76,11.77l-5.44-9.44-5.58-9.7c-.63-1.2-1.26-2.41-1.9-3.61l-.19.08M100,24.41V51.88a4.41,4.41,0,1,0,8.82,0V36.17c0-12.84-1-11.76,11.77-11.76V50.26a15.58,15.58,0,0,1-.17,2.89,16.19,16.19,0,0,1-32.19-3v-14C88.24,23.27,87.34,24.41,100,24.41Zm54.63,18.51c.42,1.67.83,3.35,1.25,5v5.88c0,13.06,1.35,11.77-11.76,11.77V36.17c0-13.09-1.33-11.76,11.76-11.76q5.51,9.53,11,19.05l2,3.75.15-.11c-.42-1.7-.85-3.4-1.27-5.1V36.17c0-13.12-1.31-11.76,11.76-11.76V53.82c0,12.6,1,11.77-11.76,11.77l-5.44-9.44-5.58-9.7-1.9-3.61ZM291.28,65.59V36.35c0-12.9-1.13-11.94,11.73-11.94h20.63c0,11.38.88,10.29-11.75,10.29h-8.84v5.15H320.7c0,11.25,1.06,10.29-11.69,10.29h-6v5.15h20.59c0,11.1.78,10.3-11.83,10.3ZM214.81,24.41V53.82c0,13.08,1.26,11.77-11.77,11.77V36.17C203,23.39,201.64,24.41,214.81,24.41ZM236.87,34.7c0-11.45-1.51-10.29,11.76-10.29h20.59c0,10.91.82,10.29-10.29,10.29v19c0,12.84,1.32,11.84-11.77,11.84V34.7Z"/><path class="cls-2" d="M55.89,42.29V24.41L33.83,31.26V69.61A28,28,0,0,0,55.89,42.29M0,24.41V42.32A28,28,0,0,0,22.06,69.61V31.26Z"/><polygon class="cls-3" points="55.89 0 27.94 8.68 0 0 0 12.32 27.94 20.99 55.89 12.32 55.89 0"/></g></g></svg>